<svg width="948" height="948" viewBox="0 0 948 948" fill="none" xmlns="http://www.w3.org/2000/svg">
<g clip-path="url(#clip0_2878_3821)">
<mask id="mask0_2878_3821" style="mask-type:luminance" maskUnits="userSpaceOnUse" x="-1" y="-1" width="949" height="949">
<path d="M947.682 -0.635925H-0.25415V947.364H947.682V-0.635925Z" fill="white"/>
</mask>
<g mask="url(#mask0_2878_3821)">
<path d="M785.413 549.401C786.939 543.232 788.178 536.967 789.354 530.734L790.148 526.027C790.403 524.469 790.689 522.879 790.879 521.321C791.292 518.172 791.801 515.024 792.119 511.876C793.612 499.251 794.343 486.498 794.375 473.778H947.65C947.65 492.445 946.538 511.208 944.345 529.875C943.837 534.55 943.138 539.193 942.502 543.868C942.184 546.189 941.771 548.511 941.39 550.832L940.214 557.797C938.498 567.051 936.623 576.305 934.398 585.432L785.413 549.433V549.401Z" fill="#FAD826"/>
<path d="M746.101 643.215C758.972 622.608 769.396 600.442 777.277 577.45L922.354 626.965C910.69 661.056 895.213 693.811 876.209 724.277L746.069 643.215H746.101Z" fill="#FAD826"/>
<path d="M679.395 720.016C697.128 705.133 713.336 688.342 727.478 669.992L848.719 763.806C827.84 790.901 803.973 815.643 777.786 837.617L679.363 720.016H679.395Z" fill="#FAD826"/>
<path d="M592.095 772.17C612.561 763.997 632.17 753.725 650.538 741.545L735.232 869.387C708.092 887.387 679.077 902.588 648.759 914.672L592.063 772.17H592.095Z" fill="#FAD826"/>
<path d="M492.846 794.24C513.693 793 534.446 789.725 554.69 784.477L593.366 932.894C563.397 940.717 532.698 945.551 501.967 947.364L492.877 794.24H492.846Z" fill="#FAD826"/>
<path d="M391.658 784.286C410.789 789.311 430.366 792.555 450.07 793.986L439.042 946.983C409.963 944.884 380.98 940.082 352.664 932.64L391.658 784.286Z" fill="#FAD826"/>
<path d="M298.733 743.04C314.369 753.185 330.863 762.025 347.992 769.34L287.991 910.474C262.599 899.662 238.192 886.623 215.12 871.581L298.733 743.04Z" fill="#FAD826"/>
<path d="M223.319 674.762C228.817 681.568 234.537 688.214 240.575 694.543C246.614 700.903 252.874 707.009 259.389 712.861L157.057 827.059C147.46 818.441 138.18 809.41 129.313 800.06C120.415 790.71 111.961 780.947 103.857 770.866L223.319 674.762Z" fill="#FAD826"/>
<path d="M172.947 586.386C175.776 594.082 178.986 601.619 182.45 609.029C184.134 612.75 186.009 616.407 187.82 620.064L190.681 625.502C191.602 627.315 192.651 629.096 193.636 630.877L60.0327 706.055C58.5708 703.416 57.0453 700.776 55.647 698.105L51.4203 690.059C48.6872 684.653 45.9859 679.246 43.4435 673.713C38.3269 662.71 33.5916 651.547 29.3967 640.163L172.947 586.323V586.386Z" fill="#FAD826"/>
<path d="M152.926 486.657C153.021 490.473 153.339 494.258 153.561 498.074L154.07 503.766L154.324 506.597L154.642 509.427C155.436 516.996 156.612 524.533 157.947 532.038L7.18239 559.737C5.18024 548.638 3.46412 537.476 2.28826 526.313L1.81156 522.116L1.43019 517.918C1.17595 515.119 0.921713 512.321 0.699252 509.522C0.349671 503.925 -0.0634699 498.328 -0.25415 492.699L152.926 486.625V486.657Z" fill="#FAD826"/>
<path d="M164.875 385.592L163.477 390.712L162.778 393.256L162.142 395.832L160.903 400.984L159.759 406.168L159.187 408.744C158.996 409.602 158.837 410.461 158.678 411.351L157.693 416.535L156.835 421.75C156.549 423.5 156.263 425.217 156.009 426.966L4.354 404.832C4.70358 402.256 5.11673 399.68 5.56165 397.104C5.97479 394.528 6.41971 391.953 6.86463 389.377L8.32651 381.681C8.58076 380.409 8.80322 379.105 9.08924 377.833L9.91552 374.017L11.5999 366.352L13.4431 358.72L14.3965 354.904L15.4135 351.12L17.4792 343.551L164.907 385.56L164.875 385.592Z" fill="#FAD826"/>
<path d="M207.969 293.463C200.66 304.181 194.049 315.375 188.106 326.919L51.8334 256.669C60.6365 239.624 70.4247 223.087 81.1982 207.25L207.969 293.495V293.463Z" fill="#FAD826"/>
<path d="M277.695 219.398C268.319 226.617 259.326 234.377 250.84 242.613L144.441 132.199C156.994 120.05 170.246 108.634 184.07 97.9803L277.695 219.43V219.398Z" fill="#FAD826"/>
<path d="M366.997 170.774C356.89 174.335 346.975 178.406 337.282 182.954L272.133 44.1087C286.466 37.3668 301.148 31.3563 316.117 26.0773L366.997 170.774Z" fill="#FAD826"/>
<path d="M467.072 152.71C457.506 152.901 447.94 153.506 438.438 154.555L421.849 2.06719C435.896 0.540727 449.974 -0.349713 464.053 -0.635925L467.072 152.71Z" fill="#FAD826"/>
<path d="M567.783 166.735C559.711 164.223 551.543 162.124 543.312 160.279L576.523 10.5264C588.694 13.2613 600.834 16.3778 612.752 20.0986L567.783 166.735Z" fill="#FAD826"/>
<path d="M658.992 211.702C653.017 207.504 646.916 203.466 640.687 199.649L720.677 68.7866C729.893 74.4155 738.887 80.3941 747.69 86.5954L658.992 211.702Z" fill="#FAD826"/>
<path d="M731.61 282.905C730.72 281.665 729.766 280.425 728.813 279.216L725.984 275.559L723.092 271.966C722.107 270.757 721.186 269.549 720.169 268.372L837.946 170.201C839.408 171.919 840.838 173.731 842.268 175.48L846.526 180.823L850.69 186.229C852.056 188.042 853.454 189.823 854.789 191.699L731.578 282.937L731.61 282.905Z" fill="#FAD826"/>
<path d="M778.358 373.253C777.595 370.836 776.737 368.483 775.911 366.098C775.085 363.713 774.195 361.359 773.305 359.006L916.474 304.181C917.809 307.679 919.112 311.145 920.351 314.675C921.591 318.205 922.862 321.703 923.974 325.265L778.39 373.221L778.358 373.253Z" fill="#FAD826"/>
<path d="M794.407 473.746L794.343 467.894C794.343 466.908 794.343 465.954 794.28 464.968L794.153 462.043L947.333 456.541L947.492 460.834C947.555 462.265 947.555 463.696 947.587 465.127L947.682 473.746H794.407Z" fill="#FAD826"/>
<path d="M785.413 549.369C783.125 558.846 780.424 568.196 777.278 577.418L632.201 527.903C633.822 523.133 635.221 518.268 636.396 513.338L785.413 549.338V549.369Z" fill="#FAD826"/>
<path d="M746.101 643.215C740.349 652.438 734.152 661.374 727.51 669.992L606.237 576.146C609.733 571.63 612.974 566.956 615.962 562.122L746.101 643.184V643.215Z" fill="#FAD826"/>
<path d="M679.395 720.016L677.679 721.479L675.931 722.878L672.435 725.708C670.083 727.585 667.7 729.365 665.316 731.21L661.693 733.849C660.486 734.74 659.278 735.63 658.039 736.457C655.56 738.174 653.113 739.892 650.602 741.545L565.908 613.704C567.243 612.877 568.482 611.923 569.785 611.064C570.453 610.651 571.056 610.142 571.692 609.697L573.599 608.329C574.838 607.343 576.11 606.421 577.349 605.435L579.192 603.941L580.114 603.209L581.004 602.446L679.427 720.048L679.395 720.016Z" fill="#FAD826"/>
<path d="M592.095 772.17C579.891 777.036 567.37 781.106 554.69 784.445L516.013 636.028C522.592 634.279 529.075 632.18 535.399 629.668L592.095 772.17Z" fill="#FAD826"/>
<path d="M492.846 794.24C478.608 795.131 464.307 794.972 450.07 793.986L461.097 640.989C462.972 641.085 464.847 641.244 466.722 641.276C467.676 641.276 468.597 641.371 469.551 641.371H472.379C473.333 641.435 474.286 641.403 475.208 641.371H478.036L480.865 641.212H482.263L483.661 641.053L492.75 794.177L492.846 794.24Z" fill="#FAD826"/>
<path d="M391.658 784.286L386.096 782.792C384.253 782.251 382.41 781.71 380.567 781.17C379.645 780.884 378.723 780.629 377.802 780.343L375.069 779.453C373.225 778.848 371.382 778.276 369.571 777.64C362.293 775.159 355.111 772.361 347.992 769.372L408.025 628.237C411.711 629.763 415.429 631.226 419.211 632.53C420.165 632.88 421.118 633.134 422.071 633.452L423.502 633.929C423.978 634.088 424.455 634.216 424.932 634.343L427.792 635.201L430.684 635.965L391.69 784.318L391.658 784.286Z" fill="#FAD826"/>
<path d="M298.701 743.04C291.741 738.556 285.036 733.754 278.457 728.729C271.879 723.705 265.523 718.426 259.389 712.892L361.721 598.693C364.931 601.619 368.3 604.354 371.732 606.994C375.164 609.633 378.692 612.177 382.315 614.499L298.701 743.072V743.04Z" fill="#FAD826"/>
<path d="M223.319 674.762C217.789 667.862 212.514 660.77 207.556 653.455C202.63 646.109 197.99 638.604 193.636 630.908L327.24 555.73C329.496 559.737 331.911 563.68 334.486 567.528C337.091 571.344 339.856 575.065 342.748 578.69L223.287 674.794L223.319 674.762Z" fill="#FAD826"/>
<path d="M172.947 586.386C169.642 577.577 166.75 568.609 164.24 559.546C161.729 550.482 159.6 541.292 157.915 532.069L308.68 504.37C309.538 509.172 310.65 513.943 311.953 518.649C313.256 523.356 314.782 527.999 316.466 532.578L172.916 586.386H172.947Z" fill="#FAD826"/>
<path d="M152.926 486.625C152.545 476.671 152.576 466.686 153.085 456.732C153.593 446.778 154.61 436.856 156.04 426.966L307.727 449.1C306.964 454.251 306.424 459.435 306.169 464.714C305.915 469.961 305.883 475.304 306.074 480.583L152.894 486.625H152.926Z" fill="#FAD826"/>
<path d="M164.875 385.624C170.627 365.335 178.445 345.65 188.106 326.919L324.379 397.168C319.358 406.931 315.322 417.139 312.335 427.665L164.907 385.656L164.875 385.624Z" fill="#FAD826"/>
<path d="M207.969 293.463C220.459 275.082 234.855 258.037 250.84 242.581L357.24 352.996C348.85 361.105 341.286 370.073 334.74 379.677L207.969 293.432V293.463Z" fill="#FAD826"/>
<path d="M277.663 219.398C286.911 212.275 296.508 205.628 306.455 199.554C316.403 193.448 326.699 187.946 337.282 182.985L402.431 321.83C396.933 324.406 391.563 327.268 386.382 330.449C381.202 333.629 376.149 337.127 371.319 340.848L277.695 219.398H277.663Z" fill="#FAD826"/>
<path d="M366.997 170.774C390.069 162.601 414.095 157.226 438.406 154.555L454.996 307.043C442.252 308.442 429.826 311.209 417.876 315.47L366.997 170.774Z" fill="#FAD826"/>
<path d="M467.072 152.711C479.879 152.488 492.687 152.965 505.431 154.205C518.174 155.445 530.823 157.513 543.312 160.279L510.102 310.032C503.619 308.601 497.041 307.52 490.335 306.884C483.661 306.248 476.86 305.961 470.059 306.089L467.04 152.742L467.072 152.711Z" fill="#FAD826"/>
<path d="M567.783 166.735C580.559 170.646 593.08 175.417 605.284 180.887C617.455 186.42 629.309 192.653 640.718 199.618L560.728 330.48C554.753 326.823 548.588 323.611 542.264 320.717C535.908 317.919 529.425 315.406 522.814 313.371L567.783 166.735Z" fill="#FAD826"/>
<path d="M658.992 211.67C681.683 227.857 702.34 246.906 720.169 268.34L602.392 366.511C593.048 355.254 582.148 345.236 570.294 336.777L658.992 211.67Z" fill="#FAD826"/>
<path d="M731.609 282.905C748.898 306.216 762.945 331.911 773.305 359.006L630.136 413.832C624.733 399.776 617.455 386.355 608.398 374.144L731.609 282.905Z" fill="#FAD826"/>
<path d="M794.407 473.746H641.132C641.132 455.619 638.271 438.033 632.773 421.242L778.358 373.285C789.004 405.627 794.407 439.686 794.407 473.746Z" fill="#FAD826"/>
</g>
</g>
<defs>
<clipPath id="clip0_2878_3821">
<rect width="948" height="948" fill="white"/>
</clipPath>
</defs>
</svg>
