<svg width="84" height="40" viewBox="0 0 84 40" fill="none" xmlns="http://www.w3.org/2000/svg">
<path d="M35.1802 0.000898337C31.4544 -0.0554375 28.1477 2.95984 28.1477 7.32355V26.9736C28.1515 27.6809 27.6237 28.3083 26.8554 28.3083H20.7193C7.44125 28.3241 8.62774 11.3163 19.9298 11.3004C24.9542 11.2932 26.7103 11.3004 26.7103 11.3004V6.53509H19.6888C15.2889 6.54221 11.9579 8.21944 9.71739 10.72C7.47677 13.2206 6.32968 16.5507 6.33146 19.8602C6.33321 23.0462 7.41878 26.3529 9.68638 28.8589C11.954 31.365 15.4018 33.0788 20.167 33.0788H31.7488C32.4184 33.0788 32.986 32.5111 32.986 31.8491V7.84202C32.9787 6.58661 33.6292 5.57734 34.6751 5.24326H34.6752C35.6898 4.92011 36.8041 5.34098 37.4758 6.29728L37.4787 6.30155L37.4814 6.30599C39.109 8.97574 43.176 15.525 46.8495 21.4287C48.6863 24.3806 50.4248 27.1713 51.7112 29.2355C52.3543 30.2676 52.8845 31.1181 53.2574 31.7164C53.6274 32.3099 53.833 32.6396 53.8559 32.6769C54.1269 33.0602 54.4678 33.2042 54.7519 33.1146H54.7521L54.7524 33.1144C54.9135 33.0643 55.0403 32.9507 55.1351 32.7636C55.23 32.5766 55.2862 32.3169 55.2862 32.0049V7.84547C55.2823 6.59405 55.9288 5.58266 56.9782 5.25049C57.9866 4.92685 59.1043 5.34775 59.7692 6.305L59.7719 6.30878L59.7742 6.31272C61.4054 8.98077 65.4742 15.5301 69.1485 21.4338C72.8208 27.3342 76.1042 32.5981 76.1556 32.6801C76.1558 32.6802 76.1559 32.6804 76.156 32.6805C76.4215 33.0614 76.7841 33.2134 77.0869 33.1179C77.2508 33.066 77.3818 32.95 77.4795 32.7628C77.5771 32.5756 77.6355 32.3177 77.6355 32.0085V0.14969V0.148048H72.8324V18.7524C72.8324 18.7524 69.8581 13.7036 64.7878 4.98969C59.827 -3.54695 50.4653 -0.0186135 50.4615 7.327V18.749C50.4615 18.749 47.5585 13.6966 42.4915 4.98263C40.4748 1.51601 37.7294 0.0394439 35.1802 0.000898337ZM20.5565 0.148048C-7.0439 0.144609 -6.78206 39.5066 20.9283 39.5246H31.7557C36.4154 39.528 39.4075 36.7615 39.4038 31.6628V21.6926C39.4038 21.6926 45.4765 31.7712 47.8595 35.7162C51.9138 42.4239 61.7249 41.105 61.7003 32.7262V21.6997C61.7003 21.6997 67.7727 31.7745 70.159 35.7249C74.2134 42.4306 84.0251 41.1103 84.0001 32.7295V0.148048H79.2044V32.0082V32.0085C79.2078 33.5141 78.3647 34.3555 77.5613 34.6097L77.5608 34.6099C76.581 34.9226 75.515 34.5042 74.8522 33.5538L74.8499 33.5505L74.8477 33.5472C74.7107 33.328 61.7141 12.4946 58.4646 7.17197C58.195 6.78875 57.8001 6.6313 57.4497 6.74218C57.0859 6.85883 56.8547 7.2443 56.8547 7.84481V32.001V32.0013C56.8585 33.513 56.0297 34.352 55.2298 34.6097L55.2293 34.6099L55.2288 34.6101C54.2633 34.9138 53.2143 34.4961 52.5556 33.5465L52.5539 33.5442L52.5525 33.5419C52.5262 33.5011 52.3165 33.1652 51.9415 32.5644C51.5665 31.9637 51.0345 31.111 50.3898 30.077C49.1003 28.0091 47.36 25.216 45.5226 22.2635C41.8493 16.3612 37.7909 9.82569 36.1684 7.16491C35.8991 6.78229 35.5006 6.62764 35.1495 6.7389V6.73873C34.7817 6.85559 34.5482 7.24099 34.5515 7.83677V7.83726V31.8489C34.5515 33.39 33.2895 34.6455 31.7488 34.6455H20.1669C14.8973 34.6455 11.0387 32.7307 8.50726 29.922C5.97586 27.1133 4.76975 23.419 4.76614 19.8602C4.76254 16.1676 6.04006 12.4506 8.54762 9.65101C11.0552 6.85139 14.796 4.97533 19.6852 4.96818H19.6853H26.7103V0.148048H20.5565Z" fill="white"/>
</svg>
