<svg width="60" height="48" viewBox="0 0 60 48" fill="none" xmlns="http://www.w3.org/2000/svg">
<path d="M18 1.5V6C18 6.84375 17.25 7.5 16.5 7.5C15.656 7.5 15 6.84375 15 6V1.5C15 0.75 15.656 0 16.5 0C17.25 0 18 0.75 18 1.5ZM1.5 15H6C6.75 15 7.5 15.75 7.5 16.5C7.5 17.3438 6.75 18 6 18H1.5C0.656 18 0 17.3438 0 16.5C0 15.75 0.656 15 1.5 15ZM25.875 4.96875C26.438 4.40625 27.469 4.40625 28.031 4.96875C28.594 5.53125 28.594 6.5625 28.031 7.125L25.031 10.125C24.469 10.6875 23.438 10.6875 22.875 10.125C22.312 9.5625 22.312 8.53125 22.875 7.96875L25.875 4.96875ZM38.438 9.375L59.438 27.375C60.094 27.9375 60.188 28.875 59.625 29.5312C59.062 30.1875 58.125 30.1875 57.469 29.7188L54 26.625V42C54 45.375 51.281 48 48 48H27C23.625 48 21 45.375 21 42V26.625L17.438 29.7188C16.781 30.1875 15.844 30.1875 15.281 29.5312C14.812 28.875 14.812 27.9375 15.469 27.375L36.469 9.375C37.031 8.90625 37.875 8.90625 38.438 9.375ZM51 24.0938L37.5 12.5625L24 24.0938V42C24 43.6875 25.312 45 27 45H48C49.594 45 51 43.6875 51 42V24.0938ZM31.5 28.5C31.5 26.9062 32.812 25.5 34.5 25.5H40.5C42.094 25.5 43.5 26.9062 43.5 28.5V34.5C43.5 36.1875 42.094 37.5 40.5 37.5H34.5C32.812 37.5 31.5 36.1875 31.5 34.5V28.5ZM40.5 28.5H34.5V34.5H40.5V28.5ZM13.5 16.5C13.5 17.8125 14.25 18.9375 15.469 19.4062C16.219 19.6875 16.688 20.5312 16.406 21.2812C16.125 22.0312 15.281 22.5 14.438 22.2188C12.094 21.375 10.5 19.125 10.5 16.5C10.5 13.2188 13.125 10.5 16.5 10.5C19.031 10.5 21.281 12.1875 22.125 14.5312C22.406 15.2812 21.938 16.2188 21.188 16.5C20.438 16.6875 19.594 16.3125 19.312 15.5625C18.844 14.3438 17.719 13.5 16.5 13.5C14.812 13.5 13.5 14.9062 13.5 16.5ZM10.031 25.125L7.03101 28.125C6.46901 28.6875 5.438 28.6875 4.875 28.125C4.312 27.5625 4.312 26.5312 4.875 25.9688L7.875 22.9688C8.438 22.4062 9.46901 22.4062 10.031 22.9688C10.594 23.5312 10.594 24.5625 10.031 25.125ZM4.875 4.96875C5.438 4.40625 6.46901 4.40625 7.03101 4.96875L10.031 7.96875C10.594 8.53125 10.594 9.5625 10.031 10.125C9.46901 10.6875 8.438 10.6875 7.875 10.125L4.875 7.125C4.312 6.5625 4.312 5.53125 4.875 4.96875Z" fill="white"/>
</svg>
