<svg width="55" height="48" viewBox="0 0 55 48" fill="none" xmlns="http://www.w3.org/2000/svg">
<path d="M28.9524 1.52381V3.2381C29.7143 3.33333 30.4762 3.52381 31.2381 3.71429C32 3.90476 32.4765 4.76191 32.2855 5.52381C32.0955 6.38095 31.2381 6.85714 30.3807 6.66667C29.3333 6.38095 28.286 6.19048 27.3331 6.09524C26.5712 6.09524 25.7138 6.28571 25.1429 6.66667C24.5719 6.95238 24.381 7.33333 24.381 7.90476C24.381 8.19048 24.4765 8.47619 25.0474 8.85714C25.7138 9.2381 26.5712 9.52381 27.8095 9.90476H27.905C28.9524 10.1904 30.2852 10.5714 31.3336 11.2381C32.4764 12 33.4283 13.1429 33.5238 14.9524C33.5238 16.7619 32.5709 18.0952 31.3336 18.8571C30.5717 19.3333 29.7143 19.619 28.9524 19.7142V21.3333C28.9524 22.1905 28.1905 22.8571 27.4286 22.8571C26.5712 22.8571 25.9048 22.1905 25.9048 21.3333V19.7142C24.7619 19.5239 23.81 19.1429 22.9526 18.8571C22.7616 18.762 22.4762 18.6667 22.2862 18.6667C21.5243 18.381 21.1424 17.5238 21.3333 16.6666C21.6188 15.9047 22.4762 15.5238 23.3336 15.7143C23.5236 15.8095 23.7145 15.9047 24 16C25.2384 16.381 26.2857 16.7619 27.4286 16.7619C28.286 16.8572 29.1434 16.6666 29.7143 16.2857C30.1907 16 30.4762 15.619 30.3807 14.9524C30.3807 14.5715 30.2852 14.1905 29.7143 13.9048C29.0479 13.4286 28.095 13.1429 26.9521 12.7619H26.7622C25.7138 12.4761 24.4765 12.0952 23.4281 11.4286C22.2862 10.762 21.3333 9.6191 21.3333 7.90476C21.3333 6.09524 22.2862 4.76191 23.5236 4C24.2855 3.61905 25.0474 3.33333 25.9048 3.2381V1.52381C25.9048 0.761905 26.5712 0 27.4286 0C28.1905 0 28.9524 0.761905 28.9524 1.52381ZM14.3807 29.5238C15.6191 28.6667 17.0474 28.1905 18.5712 28.1905H32.7619C35.6185 28.1905 38.0952 30.6667 38.0952 33.5238C38.0952 34.381 37.9042 35.1429 37.5243 35.8095H38.0952L47.0471 30.4762C47.9045 30 48.7619 29.7143 49.7148 29.7143H49.8093C52.5714 29.7143 54.8571 32 54.8571 34.762C54.8571 36.381 53.9997 38 52.5714 38.9524L41.1429 46.2857C39.4281 47.4286 37.4288 48 35.3331 48H1.52381C0.666413 48 0 47.3334 0 46.4762C0 45.7143 0.666413 44.9524 1.52381 44.9524H35.3331C36.8569 44.9524 38.2862 44.5714 39.5236 43.8095L50.8566 36.381C51.4286 36 51.714 35.4286 51.714 34.762C51.714 33.7143 50.8566 32.7619 49.8093 32.7619H49.7148C49.3328 32.7619 48.9529 32.9524 48.6664 33.0476L39.2381 38.6667C39.0481 38.8571 38.7617 38.8571 38.4762 38.8571H32.7619H30.4762H24.381C23.5236 38.8571 22.8571 38.1905 22.8571 37.3333C22.8571 36.5714 23.5236 35.8095 24.381 35.8095H30.4762H32.7619C34.0003 35.8095 35.0476 34.8571 35.0476 33.5238C35.0476 32.2857 34.0003 31.2381 32.7619 31.2381H18.5712C17.6193 31.2381 16.7619 31.5238 16 32.0953L8.38095 37.1429C8.18997 37.3333 7.90451 37.3333 7.61905 37.3333H1.52381C0.666413 37.3333 0 36.6667 0 35.8095C0 35.0476 0.666413 34.2857 1.52381 34.2857H7.14261L14.3807 29.5238Z" fill="white"/>
</svg>
