<svg width="48" height="48" viewBox="0 0 48 48" fill="none" xmlns="http://www.w3.org/2000/svg">
<path d="M24 0C30.6276 0 36.6276 2.6862 40.9701 7.02995C45.3138 11.3737 48 17.3737 48 24C48 30.6263 45.3138 36.6276 40.9701 40.9701C36.6263 45.3138 30.6263 48 24 48C17.3737 48 11.3724 45.3138 7.02995 40.9701C2.6862 36.6276 0 30.6276 0 24C0 17.3724 2.6862 11.3724 7.02995 7.02995C11.3724 2.6862 17.3724 0 24 0ZM39.9102 8.08984C35.8385 4.01823 30.2135 1.5 24 1.5C17.7865 1.5 12.1615 4.01823 8.08984 8.08984C4.01823 12.1615 1.5 17.7865 1.5 24C1.5 30.2135 4.01823 35.8385 8.08984 39.9102C12.1615 43.9818 17.7865 46.5 24 46.5C30.2135 46.5 35.8385 43.9818 39.9102 39.9102C43.9818 35.8385 46.5 30.2135 46.5 24C46.5 17.7865 43.9818 12.1615 39.9102 8.08984Z" fill="white"/>
<path d="M43.4076 10.4441H4.59375V11.9441H43.4076V10.4441Z" fill="white"/>
<path d="M47.25 23.25H0.75V24.75H47.25V23.25Z" fill="white"/>
<path d="M43.4076 36.0559H4.59375V37.5559H43.4076V36.0559Z" fill="white"/>
<path d="M24 0C28.7721 0 33.0742 2.72396 36.1719 7.12891C39.2148 11.457 41.0977 17.4232 41.0977 24C41.0977 30.5768 39.2148 36.543 36.1719 40.8711C33.0742 45.276 28.7721 48 24 48C19.2279 48 14.9258 45.276 11.8281 40.8711C8.78516 36.543 6.90234 30.5768 6.90234 24C6.90234 17.4232 8.78516 11.457 11.8281 7.12891C14.9258 2.72396 19.2279 0 24 0ZM34.9466 7.99088C32.1276 3.98047 28.2552 1.5 24 1.5C19.7448 1.5 15.8724 3.98047 13.0521 7.99088C10.1784 12.0768 8.40104 17.737 8.40104 24C8.40104 30.263 10.1784 35.9232 13.0521 40.0091C15.8711 44.0195 19.7435 46.5 24 46.5C28.2565 46.5 32.1276 44.0195 34.9466 40.0091C37.8203 35.9232 39.5977 30.263 39.5977 24C39.5977 17.737 37.8203 12.0768 34.9466 7.99088Z" fill="white"/>
<path d="M24 0C26.3737 0 28.4362 2.80339 29.8529 7.33724C31.1888 11.6146 32.0156 17.5065 32.0156 24C32.0156 30.4935 31.1888 36.3854 29.8529 40.6628C28.4362 45.1966 26.3737 48 24 48C21.6263 48 19.5638 45.1966 18.1471 40.6628C16.8112 36.3854 15.9844 30.4935 15.9844 24C15.9844 17.5065 16.8112 11.6146 18.1471 7.33724C19.5638 2.80339 21.6263 0 24 0ZM28.4232 7.78255C27.2096 3.90104 25.6406 1.5 24 1.5C22.3594 1.5 20.7904 3.90104 19.5768 7.78255C18.2839 11.9206 17.4844 17.6536 17.4844 24C17.4844 30.3464 18.2839 36.0794 19.5768 40.2174C20.7904 44.099 22.3594 46.5 24 46.5C25.6406 46.5 27.2096 44.099 28.4232 40.2174C29.7161 36.0794 30.5156 30.3464 30.5156 24C30.5156 17.6536 29.7161 11.9206 28.4232 7.78255Z" fill="white"/>
</svg>
